# xmcd
#
# Track frame offsets:
#	150
#	15944
#	29928
#	42650
#	58723
#	77483
#	94019
#	111315
#	130754
#	149163
#	165797
#	187785
#	210360
#	230191
#	246092
#	276693
#
# Disc length: 4895 seconds
#
# Revision: 1
# Processed by: cddbd v1.5.2PL0 Copyright (c) Steve Scherf et al.
# Submitted via: audiograbber 1.83.01
#
DISCID=e3131d10
DTITLE=Blue Rose - Blue Rose Nuggets 61
DYEAR=2013
DGENRE=Country Rock
TTITLE0=Poco - All Fired Up
TTITLE1=Shooter Jennings - The Low Road
TTITLE2=The Statesboro Revue - Fade My Shade Of Black
TTITLE3=Tod Thibaud - Waterfall
TTITLE4=The Dirty Guv´Nahs - Temptation
TTITLE5=The Resentments - Space Between
TTITLE6=US Rails - Follow The Lights
TTITLE7=The Del-Lords - When The Drugs Kick In
TTITLE8=Stacie Collins - On The Top Of That Mountain (live)
TTITLE9=I See Hawkins In L.A. - The Beauty Of The Better States
TTITLE10=Willie Nile - American Ride
TTITLE11=Turnpike Troubadours - Good Lord Lorrie
TTITLE12=The Whipsaw - Wait It Out
TTITLE13=Sons Of Bill - Bad Dancer
TTITLE14=Sons Of Bill - Higher Than Mine
TTITLE15=Shooter Jennings - Data Track
EXTD=
EXTT0=
EXTT1=
EXTT2=
EXTT3=
EXTT4=
EXTT5=
EXTT6=
EXTT7=
EXTT8=
EXTT9=
EXTT10=
EXTT11=
EXTT12=
EXTT13=
EXTT14=
EXTT15=
PLAYORDER=
